#!OML:ASF I:\salsa\salsa 7_09\Patient 1\Session 1\dancermale.ASF
:FULLY-SPECIFIED
:DEGREES
1010
root 11.1471 17.4929 6.56518 190.994 199.109 539.994
lowerback -2.0583 1.16377 6.93355
upperback 1.82681 1.29882 0.309924
thorax 3.19959 0.796586 -3.50185
lowerneck -12.1564 3.11733 -0.462855
upperneck 24.8097 5.79535 -5.26331
head 10.0504 2.01033 -1.06525
rclavicle -2.46493e-014 2.94201e-014
rhumerus -74.4906 -1.29788 -100.693
rradius 44.5938
rwrist -9.44729
rhand 5.55189 -18.7479
rfingers 7.12502
rthumb 30.8962 -46.1691
lclavicle -2.46493e-014 2.94201e-014
lhumerus -98.3551 -17.6496 138.158
lradius 81.668
lwrist 71.6122
lhand -34.5772 65.7794
lfingers 7.12502
lthumb -7.73671 264.382
rfemur -24.0325 5.59957 11.4671
rtibia 31.3647
rfoot -14.9952 4.18928
rtoes -12.5736
lfemur -17.6984 -11.5196 -4.1399
ltibia 27.1479
lfoot -14.4183 -1.38089
ltoes -23.7217
1011
root 11.3322 17.4824 6.6176 191.067 199.546 540.272
lowerback -2.00266 1.45229 6.50708
upperback 1.93077 1.71164 -0.105782
thorax 3.32158 1.00473 -3.67172
lowerneck -12.8075 1.55769 -0.953973
upperneck 25.4662 3.45003 -4.08701
head 10.3095 0.991894 -0.856285
rclavicle -4.27387e-014 -1.78906e-014
rhumerus -74.0395 -1.26371 -100.656
rradius 44.3716
rwrist -9.99871
rhand 6.57977 -19.0745
rfingers 7.12502
rthumb 31.8756 -46.3054
lclavicle -4.27387e-014 -1.78906e-014
lhumerus -97.8625 -17.1705 141.085
lradius 82.2196
lwrist 72.0858
lhand -35.4099 66.0983
lfingers 7.12502
lthumb -8.54036 264.094
rfemur -25.1227 5.44607 10.3131
rtibia 32.7219
rfoot -14.5062 4.73909
rtoes -12.9599
lfemur -17.0565 -10.6584 -5.14657
ltibia 25.872
lfoot -15.1216 -1.30699
ltoes -25.599
1012
root 11.5226 17.4737 6.66243 191.194 200.03 540.545
lowerback -1.89724 1.73398 6.2891
upperback 1.95844 2.11765 -0.620859
thorax 3.34848 1.21106 -4.06444
lowerneck -13.1489 -0.0477989 -1.74031
upperneck 26.0329 0.986435 -2.55822
head 10.5204 -0.048516 -0.493981
rclavicle 1.88845e-015 -1.98785e-015
rhumerus -73.6131 -1.07582 -100.616
rradius 44.015
rwrist -9.72975
rhand 7.22963 -19.4341
rfingers 7.12502
rthumb 32.4942 -46.5397
lclavicle 1.88845e-015 -1.98785e-015
lhumerus -96.846 -16.8322 143.571
lradius 81.6719
lwrist 71.3836
lhand -33.9184 65.9038
lfingers 7.12502
lthumb -7.10083 264.235
rfemur -26.3279 5.18005 9.15663
rtibia 34.0625
rfoot -13.7524 5.49426
rtoes -12.109
lfemur -16.6617 -9.82178 -6.19231
ltibia 24.8546
lfoot -15.7919 -1.03594
ltoes -28.2147
1013
root 11.7081 17.4642 6.70249 191.352 200.647 540.637
lowerback -2.19114 1.78913 5.57449
upperback 2.26873 2.18945 -0.630933
thorax 3.81567 1.24905 -3.65487
lowerneck -13.333 -1.44613 -2.72294
upperneck 26.1687 -1.01982 -1.55184
head 10.6087 -0.945646 -0.227464
rclavicle 1.10325e-014 2.54444e-014
rhumerus -72.9989 0.510704 -100.034
rradius 43.7649
rwrist -9.70603
rhand 8.22235 -19.5188
rfingers 7.12502
rthumb 33.4384 -46.4255
lclavicle 1.10325e-014 2.54444e-014
lhumerus -91.3945 -16.5269 140.258
lradius 74.198
lwrist 39.0538
lhand 19.5942 61.5025
lfingers 7.12502
lthumb 44.1569 85.3266
rfemur -27.525 4.86761 8.25428
rtibia 35.3088
rfoot -12.9174 6.2675
rtoes -11.6764
lfemur -16.3991 -9.09916 -7.10414
ltibia 24.2158
lfoot -16.5693 -0.30631
ltoes -28.8989
1014
root 11.8914 17.456 6.74 191.524 201.319 540.557
lowerback -2.1759 2.05343 5.3688
upperback 2.35467 2.55855 -0.902598
thorax 3.93926 1.43675 -3.79695
lowerneck -13.0311 -3.01426 -3.41596
upperneck 26.2766 -3.40328 -0.393199
head 10.6404 -1.96475 -0.00317982
rclavicle 2.5345e-014 1.47101e-014
rhumerus -72.5849 1.30067 -99.4238
rradius 43.5303
rwrist -8.48662
rhand 7.88257 -20.2976
rfingers 7.12502
rthumb 33.1154 -47.2734
lclavicle 2.5345e-014 1.47101e-014
lhumerus -89.5932 -16.3563 142.959
lradius 73.027
lwrist 40.3028
lhand 19.1084 62.816
lfingers 7.12502
lthumb 43.7036 86.8085
rfemur -28.6053 4.56888 7.60365
rtibia 36.377
rfoot -12.099 6.85137
rtoes -11.6696
lfemur -16.2703 -8.41725 -7.91156
ltibia 24.0049
lfoot -17.4814 0.668978
ltoes -26.9032
1015
root 12.0726 17.446 6.77262 191.661 201.9 540.493
lowerback -1.90231 2.35074 5.41064
upperback 2.2588 2.98668 -1.35007
thorax 3.75892 1.6522 -4.27119
lowerneck -12.3817 -4.63818 -4.09743
upperneck 26.451 -5.95376 0.972339
head 10.693 -3.03812 0.274861
rclavicle 2.54444e-014 -8.34896e-015
rhumerus -72.0853 1.47551 -98.1218
rradius 42.7374
rwrist -4.86349
rhand 8.75505 -19.8566
rfingers 7.12502
rthumb 33.9446 -46.6526
lclavicle 2.54444e-014 -8.34896e-015
lhumerus -88.2087 -16.4007 145.413
lradius 71.587
lwrist 40.6416
lhand 17.8579 62.0869
lfingers 7.12502
lthumb 42.5346 86.4953
rfemur -29.5101 4.2419 6.97769
rtibia 37.1787
rfoot -11.1624 7.29561
rtoes -10.3317
lfemur -16.3231 -7.64074 -8.76396
ltibia 24.1162
lfoot -18.4267 1.67328
ltoes -25.3674
1016
root 12.2553 17.4343 6.80236 191.631 202.496 540.629
lowerback -1.28115 2.66189 5.53089
upperback 2.00351 3.45636 -2.01188
thorax 3.24864 1.88073 -5.03519
lowerneck -11.4384 -6.23932 -4.56761
upperneck 26.7072 -8.54158 2.27876
head 10.7699 -4.1224 0.497213
rclavicle -3.38431e-014 1.0635e-014
rhumerus -71.5732 1.34282 -96.7727
rradius 41.4787
rwrist -1.89583
rhand 7.88184 -17.5077
rfingers 7.12502
rthumb 33.1147 -44.4836
lclavicle -3.38431e-014 1.0635e-014
lhumerus -87.347 -16.4548 147.754
lradius 70.4504
lwrist 40.6037
lhand 16.0895 64.422
lfingers 7.12502
lthumb 40.8762 89.3776
rfemur -30.1249 3.95363 6.14863
rtibia 37.6353
rfoot -10.2215 7.6544
rtoes -9.4073
lfemur -16.3259 -6.79648 -9.87975
ltibia 24.277
lfoot -19.2778 2.60155
ltoes -24.5415
1017
root 12.4356 17.4189 6.81469 191.047 202.917 541.436
lowerback -0.591503 2.60945 4.49773
upperback 2.1042 3.44917 -2.42936
thorax 2.92363 1.85288 -4.91843
lowerneck -10.8228 -7.5787 -4.82674
upperneck 26.7849 -10.6096 2.92081
head 10.8202 -5.02589 0.50865
rclavicle -2.78299e-015 -2.24378e-014
rhumerus -70.5428 2.18421 -95.0962
rradius 39.9621
rwrist 0.127787
rhand 8.22214 -16.4676
rfingers 7.12502
rthumb 33.4382 -43.3743
lclavicle -2.78299e-015 -2.24378e-014
lhumerus -85.4312 -16.3857 149.532
lradius 69.3048
lwrist 39.5385
lhand 15.6849 65.9614
lfingers 7.12502
lthumb 40.4959 268.964
rfemur -30.3283 3.61984 4.66037
rtibia 37.901
rfoot -9.25674 7.83637
rtoes -8.60154
lfemur -16.2323 -6.18074 -11.6878
ltibia 24.5499
lfoot -20.0561 3.17863
ltoes -23.4311
1018
root 12.5985 17.4116 6.79926 191.368 203.022 541.157
lowerback -0.553265 2.42325 4.00253
upperback 2.33245 3.20602 -2.30242
thorax 3.0716 1.72558 -4.51351
lowerneck -10.608 -8.70693 -5.33642
upperneck 26.7668 -12.308 3.57986
head 10.9372 -5.77585 0.594829
rclavicle -7.89113e-014 7.82715e-015
rhumerus -68.9921 3.51175 -93.0981
rradius 38.5254
rwrist 1.36357
rhand 8.69994 -17.5428
rfingers 7.12502
rthumb 33.8923 -44.3504
lclavicle -7.89113e-014 7.82715e-015
lhumerus -82.8163 -16.4673 150.545
lradius 67.515
lwrist 37.3508
lhand 18.1468 63.3791
lfingers 7.12502
lthumb 42.805 447.694
rfemur -31.1703 3.75736 4.39495
rtibia 38.2744
rfoot -8.2688 7.43141
rtoes -5.92402
lfemur -17.0906 -5.29937 -11.9727
ltibia 25.2036
lfoot -20.7617 3.39052
ltoes -22.3059
1019
root 12.7535 17.3934 6.81533 191.537 203.598 540.686
lowerback -0.485286 2.498 3.97771
upperback 2.50265 3.30708 -2.29685
thorax 3.21935 1.78181 -4.48827
lowerneck -10.0116 -9.75573 -6.09884
upperneck 26.795 -13.9664 4.57099
head 11.068 -6.50336 0.851518
rclavicle 1.61513e-014 6.85807e-015
rhumerus -67.8218 4.46847 -91.1544
rradius 37.4459
rwrist 2.36252
rhand 8.61334 -19.6555
rfingers 7.12502
rthumb 33.81 -46.4812
lclavicle 1.61513e-014 6.85807e-015
lhumerus -80.9821 -16.5617 151.539
lradius 67.112
lwrist 36.8916
lhand 16.6454 62.789
lfingers 7.12502
lthumb 41.3982 447.577
rfemur -31.6708 4.27197 4.28663
rtibia 38.4275
rfoot -7.46883 7.17025
rtoes -2.54137
lfemur -17.1815 -4.40955 -12.2089
ltibia 25.3557
lfoot -21.2595 3.8139
ltoes -21.1501
1020
root 12.9098 17.3738 6.84143 191.526 204.273 540.497
lowerback -0.337625 2.60762 3.89855
upperback 2.59249 3.4621 -2.42684
thorax 3.25011 1.86163 -4.57688
lowerneck -9.21967 -10.7302 -6.63474
upperneck 26.8026 -15.5429 5.40182
head 11.1466 -7.19986 1.03422
rclavicle -8.19987e-015 1.59028e-014
rhumerus -66.8572 5.4635 -89.5329
rradius 36.6296
rwrist 3.25032
rhand 7.98405 -21.4365
rfingers 7.12502
rthumb 33.2119 -48.3918
lclavicle -8.19987e-015 1.59028e-014
lhumerus -79.7441 -16.7295 152.492
lradius 67.1316
lwrist 36.4684
lhand 14.9939 61.7698
lfingers 7.12502
lthumb 39.8459 447.042
rfemur -32.0307 4.56363 3.91488
rtibia 38.5591
rfoot -6.80907 7.0912
rtoes -0.826228
lfemur -17.1061 -3.90949 -12.8265
ltibia 25.4544
lfoot -21.6481 4.38559
ltoes -19.8195
1021
root 13.0554 17.3568 6.85433 191.571 204.949 540.344
lowerback -0.221935 2.71154 3.72116
upperback 2.68389 3.6103 -2.56876
thorax 3.29431 1.93586 -4.62164
lowerneck -8.44247 -11.6285 -6.93318
upperneck 26.6077 -17.0132 6.13577
head 11.1355 -7.84558 1.16306
rclavicle 4.11484e-014 -1.90833e-014
rhumerus -65.6946 6.37188 -87.8239
rradius 35.9115
rwrist 3.87043
rhand 7.67634 -21.7932
rfingers 7.12502
rthumb 32.9192 -48.8105
lclavicle 4.11484e-014 -1.90833e-014
lhumerus -78.6511 -16.9542 152.685
lradius 67.2148
lwrist 32.976
lhand 17.1227 60.5426
lfingers 7.12502
lthumb 41.8458 445.184
rfemur -32.5059 4.82508 3.56493
rtibia 38.7472
rfoot -6.09726 6.95609
rtoes -0.0357595
lfemur -17.2947 -3.6552 -13.3649
ltibia 25.8499
lfoot -22.1486 5.08582
ltoes -18.6909
1022
root 13.1947 17.3403 6.85602 191.683 205.609 540.088
lowerback -0.122744 2.79325 3.69047
upperback 2.81121 3.72526 -2.69761
thorax 3.39084 1.999 -4.73543
lowerneck -7.70968 -12.3986 -7.18029
upperneck 26.1703 -18.2832 6.8938
head 11.0402 -8.40412 1.32231
rclavicle -6.7388e-014 4.31363e-014
rhumerus -64.1324 6.96707 -85.5395
rradius 35.1443
rwrist 4.30238
rhand 8.6651 -20.208
rfingers 7.12502
rthumb 33.8592 -47.0229
lclavicle -6.7388e-014 4.31363e-014
lhumerus -77.4343 -17.0186 151.708
lradius 67.5618
lwrist 33.2075
lhand 17.6659 59.2593
lfingers 7.12502
lthumb 42.3549 443.729
rfemur -33.0648 5.12043 3.35956
rtibia 38.9452
rfoot -5.43896 6.69203
rtoes 1.55689
lfemur -17.7097 -3.57909 -13.6707
ltibia 26.5289
lfoot -22.7205 5.76755
ltoes -18.1202
1023
root 13.3335 17.3243 6.85648 191.751 206.247 539.846
lowerback -0.0220802 2.79175 3.72613
upperback 2.95462 3.72758 -2.81047
thorax 3.49445 2.00801 -4.87478
lowerneck -7.1029 -13.0018 -7.41247
upperneck 25.8118 -19.2908 7.55583
head 10.9787 -8.85095 1.47389
rclavicle -2.51463e-014 2.50469e-014
rhumerus -62.4878 7.80099 -83.8145
rradius 34.4958
rwrist 5.74116
rhand 8.72821 -19.7419
rfingers 7.12502
rthumb 33.9191 -46.5436
lclavicle -2.51463e-014 2.50469e-014
lhumerus -76.3858 -17.0723 150.714
lradius 67.9903
lwrist 33.6711
lhand 17.5466 58.5368
lfingers 7.12502
lthumb 42.2431 443.045
rfemur -33.5764 5.31908 3.19487
rtibia 39.1345
rfoot -4.90037 6.44447
rtoes 3.39211
lfemur -18.1776 -3.73952 -13.9519
ltibia 27.3183
lfoot -23.164 6.36135
ltoes -17.5129
